<svg width="20" height="20" viewBox="0 0 20 20" fill="none" xmlns="http://www.w3.org/2000/svg">
<path d="M13.2477 14.11L14.9277 12.43C15.154 12.2065 15.4403 12.0536 15.7518 11.9897C16.0634 11.9257 16.3867 11.9537 16.6827 12.07L18.7302 12.8875C19.0293 13.0089 19.2858 13.2161 19.4673 13.4831C19.6488 13.75 19.7473 14.0647 19.7502 14.3875V18.1375C19.7485 18.3571 19.7023 18.574 19.6145 18.7753C19.5267 18.9766 19.3991 19.158 19.2393 19.3087C19.0796 19.4593 18.891 19.5761 18.6849 19.6519C18.4788 19.7278 18.2595 19.7611 18.0402 19.75C3.69272 18.8575 0.797722 6.7075 0.250222 2.0575C0.224807 1.82915 0.248028 1.59801 0.318359 1.37928C0.388689 1.16055 0.504534 0.959194 0.658273 0.788452C0.812012 0.61771 1.00016 0.481454 1.21034 0.388648C1.42052 0.295842 1.64797 0.24859 1.87772 0.25H5.50022C5.82348 0.250957 6.13906 0.348601 6.40637 0.530372C6.67368 0.712144 6.8805 0.96973 7.00022 1.27L7.81772 3.3175C7.93791 3.6123 7.96858 3.93598 7.90588 4.24811C7.84319 4.56024 7.68992 4.84697 7.46522 5.0725L5.78522 6.7525C5.78522 6.7525 6.75272 13.3 13.2477 14.11Z" fill="#EC1B2E"/>
</svg>
