<svg width="30" height="18" viewBox="0 0 30 18" fill="none" xmlns="http://www.w3.org/2000/svg">
<path fill-rule="evenodd" clip-rule="evenodd" d="M26.7031 12.447C26.7031 12.447 29.1286 14.8425 29.7286 15.951C29.7403 15.967 29.7494 15.9847 29.7556 16.0035C30.0001 16.413 30.0601 16.734 29.9401 16.971C29.7376 17.3625 29.0521 17.559 28.8196 17.5755H24.5326C24.2341 17.5755 23.6131 17.4975 22.8571 16.9755C22.2796 16.572 21.7051 15.9075 21.1486 15.258C20.3176 14.2935 19.5991 13.4565 18.8716 13.4565C18.7798 13.4563 18.6885 13.4715 18.6016 13.5015C18.0511 13.6755 17.3521 14.46 17.3521 16.5495C17.3521 17.2035 16.8361 17.5755 16.4746 17.5755H14.5111C13.8421 17.5755 10.3591 17.3415 7.27064 14.085C3.48614 10.098 0.0871351 2.1 0.0541351 2.0295C-0.157365 1.512 0.286635 1.23 0.766635 1.23H5.09564C5.67614 1.23 5.86514 1.581 5.99714 1.896C6.15014 2.2575 6.71714 3.7035 7.64714 5.328C9.15314 7.971 10.0786 9.0465 10.8181 9.0465C10.9571 9.04691 11.0937 9.01069 11.2141 8.9415C12.1801 8.4105 12.0001 4.9605 11.9551 4.2495C11.9551 4.1115 11.9536 2.709 11.4586 2.031C11.1046 1.545 10.5016 1.356 10.1371 1.287C10.2346 1.146 10.4416 0.929999 10.7071 0.802499C11.3686 0.472499 12.5641 0.4245 13.7506 0.4245H14.4091C15.6961 0.4425 16.0291 0.524999 16.4971 0.643499C17.4391 0.868499 17.4571 1.479 17.3746 3.558C17.3506 4.152 17.3251 4.821 17.3251 5.6085C17.3251 5.7765 17.3176 5.964 17.3176 6.1545C17.2891 7.221 17.2516 8.4225 18.0046 8.916C18.1023 8.97684 18.2151 9.00906 18.3301 9.009C18.5911 9.009 19.3726 9.009 21.4921 5.3715C22.4221 3.765 23.1421 1.8705 23.1916 1.728C23.2336 1.6485 23.3596 1.425 23.5126 1.335C23.6215 1.27709 23.7434 1.24817 23.8666 1.251H28.9591C29.5141 1.251 29.8906 1.335 29.9641 1.545C30.0871 1.8855 29.9401 2.925 27.6151 6.069C27.2236 6.5925 26.8801 7.0455 26.5786 7.4415C24.4711 10.2075 24.4711 10.347 26.7031 12.447Z" fill="#EC1B2E"/>
</svg>
