<svg width="22" height="20" viewBox="0 0 22 20" fill="none" xmlns="http://www.w3.org/2000/svg">
<path d="M0 9.79875C0 12.5269 1.46437 14.9831 3.75187 16.6538C3.87954 16.7435 3.97468 16.8723 4.02301 17.0207C4.07135 17.1691 4.0703 17.3291 4.02 17.4769L3.71813 18.6019L3.53063 19.3013C3.49807 19.3854 3.47786 19.4738 3.47062 19.5638C3.47038 19.6113 3.47957 19.6585 3.49766 19.7025C3.51576 19.7465 3.54241 19.7865 3.57606 19.8202C3.60971 19.8538 3.64971 19.8805 3.69372 19.8986C3.73774 19.9167 3.78491 19.9259 3.8325 19.9256C3.90562 19.9256 3.97687 19.9069 4.04062 19.8712L6.41813 18.4969C6.59292 18.3924 6.79202 18.3355 6.99562 18.3319C7.10437 18.3319 7.21312 18.3488 7.31625 18.3788C8.30851 18.6635 9.33156 18.8271 10.3631 18.8662C10.1415 18.1041 10.0298 17.3143 10.0312 16.5206C10.0312 11.0156 15.2531 7.10812 20.9512 7.10812C21.045 7.10812 21.1388 7.10813 21.2325 7.11188C19.8506 3.42938 15.735 0.75 10.8675 0.75C4.8675 0.75 0 4.8 0 9.79875ZM8.685 6.88312C8.685 7.26603 8.53289 7.63325 8.26214 7.90401C7.99138 8.17477 7.62416 8.32687 7.24125 8.32687C6.85834 8.32687 6.49112 8.17477 6.22036 7.90401C5.94961 7.63325 5.7975 7.26603 5.7975 6.88312C5.7975 6.50022 5.94961 6.133 6.22036 5.86224C6.49112 5.59148 6.85834 5.43937 7.24125 5.43937C7.62416 5.43937 7.99138 5.59148 8.26214 5.86224C8.53289 6.133 8.685 6.50022 8.685 6.88312V6.88312ZM15.9506 6.88312C15.9506 7.26603 15.7985 7.63325 15.5278 7.90401C15.257 8.17477 14.8898 8.32687 14.5069 8.32687C14.124 8.32687 13.7567 8.17477 13.486 7.90401C13.2152 7.63325 13.0631 7.26603 13.0631 6.88312C13.0631 6.50022 13.2152 6.133 13.486 5.86224C13.7567 5.59148 14.124 5.43937 14.5069 5.43937C14.8898 5.43937 15.257 5.59148 15.5278 5.86224C15.7985 6.133 15.9506 6.50022 15.9506 6.88312Z" fill="#333333"/>
</svg>
