<svg width="19" height="17" viewBox="0 0 19 17" fill="none" xmlns="http://www.w3.org/2000/svg">
<path d="M9.955 16.0544C4.95812 16.0544 0.90625 12.6794 0.90625 8.52066C0.90625 4.35816 4.95438 0.983154 9.95125 0.983154C14.9481 0.983154 19 4.35816 19 8.52066C19 10.7894 17.7813 12.835 15.8763 14.2132C15.7703 14.2884 15.6912 14.3957 15.6507 14.5192C15.6102 14.6427 15.6104 14.776 15.6513 14.8994L16.06 16.4182C16.0853 16.4893 16.1035 16.5628 16.1144 16.6375C16.1125 16.7175 16.0799 16.7936 16.0233 16.8502C15.9667 16.9068 15.8906 16.9394 15.8106 16.9413C15.749 16.9389 15.6893 16.9194 15.6381 16.885L13.6563 15.7413C13.5111 15.654 13.3456 15.6062 13.1763 15.6025C13.0861 15.603 12.9964 15.6163 12.91 15.6419C11.9493 15.9177 10.9545 16.0565 9.955 16.0544V16.0544ZM5.995 6.89128C6.10908 7.06639 6.26647 7.20907 6.45191 7.30546C6.63735 7.40186 6.84455 7.44871 7.05342 7.44148C7.2623 7.43425 7.46576 7.37318 7.64409 7.26419C7.82242 7.1552 7.96956 7.00198 8.07126 6.8194C8.17296 6.63681 8.22577 6.43105 8.22455 6.22206C8.22334 6.01306 8.16816 5.80792 8.06435 5.62653C7.96054 5.44514 7.81163 5.29364 7.63205 5.18672C7.45247 5.0798 7.24832 5.02109 7.03938 5.01628C6.88008 5.01603 6.72231 5.04726 6.57512 5.10816C6.42793 5.16906 6.29423 5.25843 6.18168 5.37116C6.06913 5.48388 5.97996 5.61773 5.91928 5.76501C5.85861 5.91229 5.82763 6.07011 5.82813 6.2294C5.81624 6.46201 5.87507 6.69276 5.99687 6.89128H5.995ZM12.055 6.89316C12.1697 7.06821 12.3278 7.21055 12.5138 7.30633C12.6999 7.4021 12.9076 7.44803 13.1167 7.43963C13.3259 7.43124 13.5292 7.36881 13.707 7.25843C13.8848 7.14806 14.031 6.99349 14.1313 6.80982C14.2316 6.62614 14.2825 6.41961 14.2793 6.21036C14.276 6.00111 14.2185 5.79628 14.1125 5.61584C14.0065 5.43539 13.8556 5.28549 13.6744 5.18075C13.4932 5.076 13.288 5.01998 13.0788 5.01816C12.7587 5.01865 12.4518 5.14603 12.2255 5.37237C11.9991 5.59871 11.8717 5.90556 11.8713 6.22566C11.8641 6.46156 11.9281 6.69414 12.055 6.89316Z" fill="#333333"/>
</svg>
