<svg width="30" height="22" viewBox="0 0 30 22" fill="none" xmlns="http://www.w3.org/2000/svg">
<path d="M29.3748 4.13372C29.2049 3.52776 28.874 2.97915 28.4173 2.54622C27.9477 2.09998 27.372 1.78077 26.7448 1.61872C24.3973 0.999973 14.9923 0.999973 14.9923 0.999973C11.0715 0.955364 7.15158 1.15157 3.2548 1.58747C2.62753 1.76149 2.053 2.08783 1.58229 2.53747C1.11979 2.98247 0.784795 3.53122 0.609795 4.13247C0.189411 6.39715 -0.0148401 8.69665 -0.000205083 11C-0.0152051 13.3012 0.188545 15.6 0.609795 17.8675C0.781045 18.4662 1.11479 19.0125 1.57854 19.4537C2.04229 19.895 2.6198 20.2137 3.2548 20.3825C5.63354 21 14.9923 21 14.9923 21C18.9181 21.0446 22.843 20.8484 26.7448 20.4125C27.372 20.2504 27.9477 19.9312 28.4173 19.485C28.8739 19.0521 29.2044 18.5034 29.3735 17.8975C29.8049 15.6337 30.0146 13.3332 29.9998 11.0287C30.0322 8.71448 29.8228 6.40318 29.3748 4.13247V4.13372ZM12.0023 15.28V6.72122L19.8273 11.0012L12.0023 15.28Z" fill="#333333"/>
</svg>
